<svg width="48" height="48" viewBox="0 0 48 48" fill="none" xmlns="http://www.w3.org/2000/svg">
<rect width="16" height="8.00002" transform="matrix(-1 0 0 1 32.0002 0)" fill="#22C55E"/>
<rect width="16" height="8.00002" transform="matrix(-1 0 0 1 32.0002 40.0002)" fill="#22C55E"/>
<path d="M48 32L48 16L40 16L40 32L48 32Z" fill="#22C55E"/>
<rect width="16" height="8.00002" transform="matrix(-1.19249e-08 -1 -1 1.19249e-08 8 32)" fill="#22C55E"/>
<rect width="7.69814" height="7.69814" transform="matrix(-1.19249e-08 -1 -1 1.19249e-08 39.8494 15.8491)" fill="#22C55E"/>
<rect width="7.69814" height="7.69814" transform="matrix(-1.19249e-08 -1 -1 1.19249e-08 15.8491 15.8491)" fill="#22C55E"/>
<rect width="7.69814" height="7.69814" transform="matrix(-1.19249e-08 -1 -1 1.19249e-08 15.8491 39.8491)" fill="#22C55E"/>
<rect width="7.69814" height="7.69814" transform="matrix(-1.19249e-08 -1 -1 1.19249e-08 39.8494 39.8491)" fill="#22C55E"/>
</svg>
