<svg width="40" height="41" viewBox="0 0 40 41" fill="none" xmlns="http://www.w3.org/2000/svg">
<path d="M38 15.9301V14.9301H33V13.9301H27V12.9301H26V10.9301H25V8.93005H24V6.93005H23V4.93005H22V2.93005H21V0.930054H19V2.93005H18V4.93005H17V6.93005H16V8.93005H15V10.9301H14V12.9301H13V13.9301H7V14.9301H2V15.9301H0V17.9301H1V18.9301H2V19.9301H3V20.9301H4V21.9301H5V22.9301H6V23.9301H7V24.9301H8V25.9301H9V30.9301H8V35.9301H7V40.9301H9V39.9301H11V38.9301H13V37.9301H15V36.9301H17V35.9301H19V34.9301H21V35.9301H23V36.9301H25V37.9301H27V38.9301H29V39.9301H31V40.9301H33V35.9301H32V30.9301H31V25.9301H32V24.9301H33V23.9301H34V22.9301H35V21.9301H36V20.9301H37V19.9301H38V18.9301H39V17.9301H40V15.9301H38Z" fill="#74787C"/>
<path d="M1 18.9301H2V19.9301H3V20.9301H4V21.9301H5V22.9301H6V23.9301H7V24.9301H8V25.9301H9V30.9301H8V33.9301H10V31.9301H12V29.9301H14V27.9301H16V25.9301H18V23.9301H20V21.9301H22V19.9301H24V17.9301H26V15.9301H28V13.9301H27V12.9301H26V10.9301H25V8.93005H24V6.93005H23V4.93005H22V2.93005H21V0.930054H19V2.93005H18V4.93005H17V6.93005H16V8.93005H15V10.9301H14V12.9301H13V13.9301H7V14.9301H2V15.9301H0V17.9301H1V18.9301Z" fill="#9CA3AF"/>
<path d="M38 15.9301V14.9301H33V13.9301H27V12.9301H26V10.9301H25V8.93005H24V6.93005H23V4.93005H22V2.93005H21V0.930054H19V2.93005H18V4.93005H17V6.93005H16V8.93005H15V10.9301H14V12.9301H13V13.9301H7V14.9301H2V15.9301H0V17.9301H1V18.9301H2V19.9301H3V20.9301H4V21.9301H5V22.9301H6V23.9301H7V24.9301H8V25.9301H9V30.9301H8V35.9301H7V40.9301H9V39.9301H11V38.9301H13V37.9301H15V36.9301H17V35.9301H19V34.9301H21V35.9301H23V36.9301H25V37.9301H27V38.9301H29V39.9301H31V40.9301H33V35.9301H32V30.9301H31V25.9301H32V24.9301H33V23.9301H34V22.9301H35V21.9301H36V20.9301H37V19.9301H38V18.9301H39V17.9301H40V15.9301H38ZM37 17.9301H36V18.9301H35V19.9301H34V20.9301H33V21.9301H32V22.9301H31V23.9301H30V24.9301H29V31.9301H30V36.9301H28V35.9301H26V34.9301H24V33.9301H22V32.9301H18V33.9301H16V34.9301H14V35.9301H12V36.9301H10V31.9301H11V24.9301H10V23.9301H9V22.9301H8V21.9301H7V20.9301H6V19.9301H5V18.9301H4V17.9301H3V16.9301H8V15.9301H15V13.9301H16V11.9301H17V9.93005H18V7.93005H19V5.93005H21V7.93005H22V9.93005H23V11.9301H24V13.9301H25V15.9301H32V16.9301H37V17.9301Z" fill="#111827"/>
</svg>
